<?xml version="1.0" standalone="no"?>
<!DOCTYPE svg PUBLIC "-//W3C//DTD SVG 20010904//EN"
 "http://www.w3.org/TR/2001/REC-SVG-20010904/DTD/svg10.dtd">
<svg version="1.0" xmlns="http://www.w3.org/2000/svg"
 width="500.000000pt" height="350.000000pt" viewBox="0 0 500.000000 350.000000"
 preserveAspectRatio="xMidYMid meet">

<g transform="translate(0.000000,350.000000) scale(0.100000,-0.100000)"
fill="#000000" stroke="none">
<path d="M1572 2745 c-57 -40 -220 -321 -213 -367 1 -5 -4 -8 -10 -8 -6 0 -9
-6 -7 -12 3 -7 -5 -33 -17 -58 -13 -25 -37 -88 -54 -140 l-31 -95 -113 -1
c-61 0 -101 3 -87 7 l25 7 -25 1 c-14 1 -50 -6 -80 -14 -30 -8 -91 -24 -135
-35 -199 -51 -209 -54 -247 -88 -23 -21 -38 -43 -38 -57 0 -12 -6 -28 -14 -34
-23 -19 -56 -98 -56 -134 0 -53 43 -128 92 -160 39 -25 50 -27 143 -27 115 0
258 34 286 69 15 19 109 41 109 26 0 -4 -9 -41 -19 -83 -10 -43 -19 -84 -20
-92 0 -8 -5 -39 -9 -68 -5 -29 -5 -55 0 -58 4 -3 8 -15 7 -27 0 -21 -1 -21 -8
-2 -18 45 -27 -197 -10 -258 16 -59 74 -91 165 -92 88 0 102 9 255 178 116
127 247 313 289 408 l25 56 80 27 c116 40 302 135 330 168 35 41 41 89 19 135
-27 55 -78 74 -294 110 -123 21 -121 18 -96 142 19 90 21 207 5 248 -11 30
-12 33 -29 103 -6 24 -16 48 -23 52 -6 4 -17 29 -24 55 l-12 48 5 -65 5 -65
-58 3 c-62 4 -94 19 -71 33 12 8 15 57 7 124 -4 26 -1 30 24 33 16 2 35 -2 43
-9 8 -6 17 -9 20 -6 10 9 -53 37 -83 37 -16 0 -38 -7 -51 -15z m4 -27 c-13
-13 -39 -39 -56 -58 l-33 -35 28 40 c38 54 58 74 73 74 7 1 2 -9 -12 -21z
m-96 -118 c-6 -11 -13 -20 -16 -20 -2 0 0 9 6 20 6 11 13 20 16 20 2 0 0 -9
-6 -20z m300 -86 c0 -8 -4 -12 -10 -9 -5 3 -10 13 -10 21 0 8 5 12 10 9 6 -3
10 -13 10 -21z m-307 -266 c-8 -46 -13 -48 -13 -5 0 21 4 37 10 37 5 0 7 -14
3 -32z m-643 -308 c0 -5 -15 -10 -32 -10 -18 0 -51 -2 -73 -5 l-40 -5 40 14
c47 17 105 20 105 6z m60 -16 c0 -2 -11 -4 -25 -4 -14 0 -25 4 -25 9 0 4 11 6
25 3 14 -2 25 -6 25 -8z m190 -114 c0 -5 -2 -10 -4 -10 -3 0 -8 5 -11 10 -3 6
-1 10 4 10 6 0 11 -4 11 -10z m287 -33 c-3 -7 6 -38 19 -67 30 -72 30 -77 -7
-78 -18 0 -49 -4 -70 -7 -47 -8 -57 7 -36 57 22 53 113 145 94 95z m-212 -577
c3 -5 15 -10 26 -10 11 0 19 -7 20 -17 0 -10 2 -45 2 -78 l2 -60 -38 1 c-75 2
-92 45 -53 137 16 37 29 46 41 27z"/>
<path d="M2340 1931 l0 -191 107 0 c125 0 173 17 213 76 36 53 39 143 8 204
-36 70 -86 93 -220 98 l-108 5 0 -192z m208 73 c26 -30 30 -99 7 -143 -16 -32
-33 -41 -76 -41 l-29 0 0 103 c0 57 3 107 7 111 14 14 68 -4 91 -30z"/>
<path d="M2740 1930 l0 -190 55 0 55 0 0 75 c0 73 1 75 24 75 17 0 27 -7 32
-22 3 -13 15 -47 26 -75 l19 -53 60 0 c69 0 69 0 23 92 -30 60 -30 63 6 100
25 24 30 38 30 77 0 84 -54 111 -227 111 l-103 0 0 -190z m208 94 c22 -39 -13
-70 -69 -62 -20 2 -25 10 -27 41 l-3 37 45 0 c31 0 48 -5 54 -16z"/>
<path d="M3110 1790 l0 -50 50 0 c45 0 50 3 56 25 3 14 3 36 0 50 -6 22 -11
25 -56 25 l-50 0 0 -50z"/>
<path d="M1872 1505 c-83 -25 -122 -86 -122 -190 0 -79 23 -131 77 -172 32
-25 45 -28 108 -28 63 0 76 3 109 28 42 32 75 92 60 107 -15 15 -94 24 -94 11
0 -39 -84 -68 -109 -37 -21 25 -25 117 -7 159 13 33 19 38 43 35 19 -2 32 -12
41 -30 12 -25 19 -28 60 -28 72 0 79 9 52 64 -36 75 -126 108 -218 81z m161
-31 c26 -19 65 -80 57 -87 -3 -2 -24 -7 -47 -11 -36 -5 -42 -3 -48 14 -11 34
-48 53 -78 39 -34 -16 -47 -49 -47 -125 0 -56 4 -68 25 -89 13 -14 31 -25 39
-25 31 0 67 21 78 45 9 20 16 24 37 19 53 -12 53 -11 37 -43 -65 -124 -248
-116 -307 13 -47 103 -4 230 91 269 30 13 137 0 163 -19z"/>
<path d="M4220 1513 c-91 -14 -141 -60 -161 -148 -32 -142 49 -254 185 -255
117 0 188 76 190 200 0 59 -4 75 -29 116 -40 64 -112 98 -185 87z m115 -36
c110 -61 114 -262 7 -329 -28 -17 -52 -23 -97 -23 -70 1 -113 20 -147 67 -20
28 -23 45 -23 119 0 77 3 89 27 121 53 69 155 89 233 45z"/>
<path d="M4205 1416 c-17 -17 -25 -37 -26 -63 -5 -119 12 -163 61 -163 53 0
70 29 70 119 0 61 -4 83 -17 99 -30 34 -59 37 -88 8z m83 -26 c20 -39 11 -158
-13 -176 -26 -19 -41 -18 -65 6 -26 26 -29 143 -4 178 21 31 64 26 82 -8z"/>
<path d="M2256 1501 c-3 -5 -35 -91 -71 -192 -49 -139 -62 -185 -53 -191 7 -5
33 -7 57 -6 41 3 45 6 56 38 11 34 14 35 67 38 l55 3 16 -41 16 -41 58 3 c49
3 58 6 60 23 1 11 -26 99 -60 195 l-62 175 -67 3 c-36 2 -69 -1 -72 -7z m186
-170 c31 -90 60 -172 63 -182 6 -17 1 -19 -48 -19 -52 0 -54 1 -63 33 l-10 32
-69 0 -69 0 -10 -32 c-8 -31 -12 -33 -52 -33 -24 0 -44 3 -44 6 0 8 119 344
126 356 3 5 31 8 62 6 l56 -3 58 -164z"/>
<path d="M2296 1358 c-29 -71 -29 -75 3 -80 49 -7 56 3 41 56 -16 60 -27 65
-44 24z m38 -45 c6 -20 4 -23 -18 -23 -29 0 -31 7 -14 45 12 27 19 23 32 -22z"/>
<path d="M2554 1497 c-2 -7 -3 -96 -2 -197 l3 -185 145 0 144 0 6 25 c3 14 4
35 2 48 -4 21 -9 22 -88 22 l-84 0 0 150 0 150 -60 0 c-40 0 -62 -4 -66 -13z
m114 -149 l3 -148 84 0 85 0 0 -35 0 -35 -140 0 -140 0 0 178 c0 98 3 182 7
186 4 4 28 6 53 4 l45 -3 3 -147z"/>
<path d="M2890 1460 l0 -50 70 0 c39 0 70 -3 70 -6 0 -3 -36 -57 -81 -120 -62
-88 -80 -120 -77 -141 l3 -28 170 0 170 0 3 48 3 47 -80 0 c-46 0 -81 4 -81
10 0 5 36 59 80 121 56 78 80 119 80 140 l0 29 -165 0 -165 0 0 -50z m320 22
c0 -10 -40 -76 -90 -146 -56 -79 -85 -128 -77 -131 6 -3 46 -6 87 -7 l75 -3 2
-32 1 -33 -164 0 c-136 0 -164 2 -164 14 0 8 38 70 85 137 47 68 85 126 85
130 0 5 -33 9 -72 11 l-73 3 -3 38 -3 37 155 0 c145 0 156 -1 156 -18z"/>
<path d="M3362 1483 c-55 -140 -123 -346 -118 -358 4 -10 20 -15 51 -15 45 0
47 1 62 40 16 40 16 40 69 40 52 0 54 -1 71 -37 17 -36 21 -38 72 -41 30 -2
58 1 63 6 9 9 -104 353 -125 380 -6 7 -34 12 -72 12 -59 0 -63 -2 -73 -27z
m137 0 c12 -24 121 -332 121 -343 0 -6 -22 -10 -50 -10 -47 0 -50 2 -64 35
-15 35 -15 35 -80 35 l-64 0 -12 -35 c-11 -33 -14 -35 -57 -35 -39 0 -44 2
-38 18 6 16 111 311 120 340 3 7 24 12 59 12 42 0 57 -4 65 -17z"/>
<path d="M3406 1350 c-25 -62 -22 -70 25 -70 31 0 40 3 36 14 -3 8 -11 32 -18
55 -7 23 -15 41 -19 41 -5 0 -15 -18 -24 -40z m39 -32 c7 -25 5 -28 -20 -28
-22 0 -26 3 -20 18 4 9 10 25 12 35 7 23 19 11 28 -25z"/>
<path d="M3668 1504 c-14 -13 -9 -369 4 -382 15 -15 139 -16 208 -1 59 13 116
57 136 106 20 46 17 131 -5 180 -14 29 -33 49 -68 70 -43 25 -59 28 -158 31
-60 2 -113 0 -117 -4z m255 -33 c102 -49 130 -192 54 -278 -45 -52 -81 -63
-197 -63 l-100 0 0 186 0 187 99 -5 c74 -4 109 -10 144 -27z"/>
<path d="M3787 1423 c-4 -3 -7 -55 -7 -114 0 -87 3 -108 16 -113 19 -7 74 15
93 37 20 24 26 101 11 137 -18 43 -90 77 -113 53z m80 -26 c24 -18 36 -80 24
-124 -8 -31 -18 -44 -41 -53 -55 -23 -62 -11 -59 92 1 51 4 96 5 99 5 9 56 -1
71 -14z"/>
<path d="M1407 1046 c-8 -20 23 -53 55 -60 20 -5 1122 -23 2530 -43 439 -6
468 -5 474 11 4 11 -1 25 -15 39 -21 21 -30 22 -379 28 -196 4 -589 9 -872 13
-283 4 -569 8 -635 11 -66 2 -352 7 -636 11 -474 6 -516 5 -522 -10z"/>
</g>
</svg>
